<mxfile host="app.diagrams.net" modified="2024-06-13T04:22:38.039Z" agent="Mozilla/5.0 (Windows NT 10.0; Win64; x64) AppleWebKit/537.36 (KHTML, like Gecko) Chrome/125.0.0.0 Safari/537.36" etag="1-0mM8zHe_NviEETBMPH" version="24.5.3" type="device">
  <diagram name="Page-1" id="79HrkNUcJ3JHD_pRi5_T">
    <mxGraphModel dx="1318" dy="551" grid="1" gridSize="10" guides="1" tooltips="1" connect="1" arrows="1" fold="1" page="1" pageScale="1" pageWidth="850" pageHeight="1100" math="0" shadow="0">
      <root>
        <mxCell id="0" />
        <mxCell id="1" parent="0" />
        <mxCell id="2Vbj4L77X7BfrputcoRu-93" value="" style="group" parent="1" vertex="1" connectable="0">
          <mxGeometry y="300" width="785" height="675" as="geometry" />
        </mxCell>
        <mxCell id="2Vbj4L77X7BfrputcoRu-3" value="" style="edgeStyle=orthogonalEdgeStyle;rounded=0;orthogonalLoop=1;jettySize=auto;html=1;" parent="2Vbj4L77X7BfrputcoRu-93" source="2Vbj4L77X7BfrputcoRu-1" target="2Vbj4L77X7BfrputcoRu-2" edge="1">
          <mxGeometry relative="1" as="geometry" />
        </mxCell>
        <mxCell id="2Vbj4L77X7BfrputcoRu-1" value="START" style="ellipse;whiteSpace=wrap;html=1;" parent="2Vbj4L77X7BfrputcoRu-93" vertex="1">
          <mxGeometry x="10" y="-50" width="120" height="80" as="geometry" />
        </mxCell>
        <mxCell id="2Vbj4L77X7BfrputcoRu-2" value="DO YOU HAVE AN ACCOUNT ?" style="rhombus;whiteSpace=wrap;html=1;" parent="2Vbj4L77X7BfrputcoRu-93" vertex="1">
          <mxGeometry x="30" y="60" width="80" height="80" as="geometry" />
        </mxCell>
        <mxCell id="2Vbj4L77X7BfrputcoRu-67" value="" style="edgeStyle=orthogonalEdgeStyle;rounded=0;orthogonalLoop=1;jettySize=auto;html=1;" parent="2Vbj4L77X7BfrputcoRu-93" source="2Vbj4L77X7BfrputcoRu-4" target="2Vbj4L77X7BfrputcoRu-66" edge="1">
          <mxGeometry relative="1" as="geometry" />
        </mxCell>
        <mxCell id="2Vbj4L77X7BfrputcoRu-4" value="No. Batch, Password" style="shape=parallelogram;perimeter=parallelogramPerimeter;whiteSpace=wrap;html=1;fixedSize=1;" parent="2Vbj4L77X7BfrputcoRu-93" vertex="1">
          <mxGeometry x="322.5" y="70" width="140" height="60" as="geometry" />
        </mxCell>
        <mxCell id="2Vbj4L77X7BfrputcoRu-34" value="" style="edgeStyle=orthogonalEdgeStyle;rounded=0;orthogonalLoop=1;jettySize=auto;html=1;" parent="2Vbj4L77X7BfrputcoRu-93" source="2Vbj4L77X7BfrputcoRu-46" target="2Vbj4L77X7BfrputcoRu-4" edge="1">
          <mxGeometry relative="1" as="geometry">
            <mxPoint x="305" y="150" as="sourcePoint" />
          </mxGeometry>
        </mxCell>
        <mxCell id="2Vbj4L77X7BfrputcoRu-128" style="edgeStyle=orthogonalEdgeStyle;rounded=0;orthogonalLoop=1;jettySize=auto;html=1;" parent="2Vbj4L77X7BfrputcoRu-93" source="2Vbj4L77X7BfrputcoRu-39" target="2Vbj4L77X7BfrputcoRu-46" edge="1">
          <mxGeometry relative="1" as="geometry" />
        </mxCell>
        <mxCell id="2Vbj4L77X7BfrputcoRu-39" value="No Batch, Email, Password" style="shape=parallelogram;perimeter=parallelogramPerimeter;whiteSpace=wrap;html=1;fixedSize=1;" parent="2Vbj4L77X7BfrputcoRu-93" vertex="1">
          <mxGeometry x="10" y="340" width="120" height="60" as="geometry" />
        </mxCell>
        <mxCell id="2Vbj4L77X7BfrputcoRu-47" value="" style="edgeStyle=orthogonalEdgeStyle;rounded=0;orthogonalLoop=1;jettySize=auto;html=1;" parent="2Vbj4L77X7BfrputcoRu-93" source="2Vbj4L77X7BfrputcoRu-2" target="2Vbj4L77X7BfrputcoRu-46" edge="1">
          <mxGeometry relative="1" as="geometry">
            <mxPoint x="100" y="150" as="sourcePoint" />
            <mxPoint x="185" y="150" as="targetPoint" />
          </mxGeometry>
        </mxCell>
        <mxCell id="2Vbj4L77X7BfrputcoRu-48" value="YES" style="edgeLabel;html=1;align=center;verticalAlign=middle;resizable=0;points=[];" parent="2Vbj4L77X7BfrputcoRu-47" vertex="1" connectable="0">
          <mxGeometry x="-0.1059" relative="1" as="geometry">
            <mxPoint as="offset" />
          </mxGeometry>
        </mxCell>
        <mxCell id="2Vbj4L77X7BfrputcoRu-46" value="LOGIN" style="rounded=0;whiteSpace=wrap;html=1;" parent="2Vbj4L77X7BfrputcoRu-93" vertex="1">
          <mxGeometry x="170" y="70" width="120" height="60" as="geometry" />
        </mxCell>
        <mxCell id="2Vbj4L77X7BfrputcoRu-52" value="" style="edgeStyle=orthogonalEdgeStyle;rounded=0;orthogonalLoop=1;jettySize=auto;html=1;" parent="2Vbj4L77X7BfrputcoRu-93" source="2Vbj4L77X7BfrputcoRu-2" target="2Vbj4L77X7BfrputcoRu-51" edge="1">
          <mxGeometry relative="1" as="geometry">
            <mxPoint x="70" y="190" as="sourcePoint" />
            <mxPoint x="70" y="250" as="targetPoint" />
          </mxGeometry>
        </mxCell>
        <mxCell id="2Vbj4L77X7BfrputcoRu-53" value="NO" style="edgeLabel;html=1;align=center;verticalAlign=middle;resizable=0;points=[];" parent="2Vbj4L77X7BfrputcoRu-52" vertex="1" connectable="0">
          <mxGeometry x="-0.4333" y="-2" relative="1" as="geometry">
            <mxPoint as="offset" />
          </mxGeometry>
        </mxCell>
        <mxCell id="2Vbj4L77X7BfrputcoRu-55" value="" style="edgeStyle=orthogonalEdgeStyle;rounded=0;orthogonalLoop=1;jettySize=auto;html=1;" parent="2Vbj4L77X7BfrputcoRu-93" source="2Vbj4L77X7BfrputcoRu-51" target="2Vbj4L77X7BfrputcoRu-39" edge="1">
          <mxGeometry relative="1" as="geometry" />
        </mxCell>
        <mxCell id="2Vbj4L77X7BfrputcoRu-51" value="SIGN IN" style="rounded=0;whiteSpace=wrap;html=1;" parent="2Vbj4L77X7BfrputcoRu-93" vertex="1">
          <mxGeometry x="10" y="230" width="120" height="60" as="geometry" />
        </mxCell>
        <mxCell id="2Vbj4L77X7BfrputcoRu-131" style="edgeStyle=orthogonalEdgeStyle;rounded=0;orthogonalLoop=1;jettySize=auto;html=1;" parent="2Vbj4L77X7BfrputcoRu-93" source="2Vbj4L77X7BfrputcoRu-57" target="2Vbj4L77X7BfrputcoRu-75" edge="1">
          <mxGeometry relative="1" as="geometry" />
        </mxCell>
        <mxCell id="2Vbj4L77X7BfrputcoRu-57" value="Corect Password" style="rhombus;whiteSpace=wrap;html=1;" parent="2Vbj4L77X7BfrputcoRu-93" vertex="1">
          <mxGeometry x="470" y="160" width="80" height="80" as="geometry" />
        </mxCell>
        <mxCell id="2Vbj4L77X7BfrputcoRu-130" value="" style="edgeStyle=orthogonalEdgeStyle;rounded=0;orthogonalLoop=1;jettySize=auto;html=1;" parent="2Vbj4L77X7BfrputcoRu-93" source="2Vbj4L77X7BfrputcoRu-66" target="2Vbj4L77X7BfrputcoRu-57" edge="1">
          <mxGeometry relative="1" as="geometry" />
        </mxCell>
        <mxCell id="2Vbj4L77X7BfrputcoRu-66" value="User DB" style="shape=cylinder3;whiteSpace=wrap;html=1;boundedLbl=1;backgroundOutline=1;size=15;" parent="2Vbj4L77X7BfrputcoRu-93" vertex="1">
          <mxGeometry x="480" y="60" width="60" height="80" as="geometry" />
        </mxCell>
        <mxCell id="2Vbj4L77X7BfrputcoRu-86" style="edgeStyle=orthogonalEdgeStyle;rounded=0;orthogonalLoop=1;jettySize=auto;html=1;" parent="2Vbj4L77X7BfrputcoRu-93" source="2Vbj4L77X7BfrputcoRu-75" target="2Vbj4L77X7BfrputcoRu-85" edge="1">
          <mxGeometry relative="1" as="geometry" />
        </mxCell>
        <mxCell id="2Vbj4L77X7BfrputcoRu-141" value="Admin&lt;div&gt;&lt;br&gt;&lt;/div&gt;" style="edgeLabel;html=1;align=center;verticalAlign=middle;resizable=0;points=[];" parent="2Vbj4L77X7BfrputcoRu-86" vertex="1" connectable="0">
          <mxGeometry x="-0.3333" y="3" relative="1" as="geometry">
            <mxPoint x="-5" y="7" as="offset" />
          </mxGeometry>
        </mxCell>
        <mxCell id="2Vbj4L77X7BfrputcoRu-91" style="edgeStyle=orthogonalEdgeStyle;rounded=0;orthogonalLoop=1;jettySize=auto;html=1;entryX=0.5;entryY=0;entryDx=0;entryDy=0;" parent="2Vbj4L77X7BfrputcoRu-93" source="2Vbj4L77X7BfrputcoRu-75" target="2Vbj4L77X7BfrputcoRu-90" edge="1">
          <mxGeometry relative="1" as="geometry" />
        </mxCell>
        <mxCell id="2Vbj4L77X7BfrputcoRu-92" value="Client" style="edgeLabel;html=1;align=center;verticalAlign=middle;resizable=0;points=[];" parent="2Vbj4L77X7BfrputcoRu-91" vertex="1" connectable="0">
          <mxGeometry x="0.5941" y="-4" relative="1" as="geometry">
            <mxPoint as="offset" />
          </mxGeometry>
        </mxCell>
        <mxCell id="2Vbj4L77X7BfrputcoRu-75" value="What Batch ?" style="rhombus;whiteSpace=wrap;html=1;" parent="2Vbj4L77X7BfrputcoRu-93" vertex="1">
          <mxGeometry x="470" y="270" width="80" height="80" as="geometry" />
        </mxCell>
        <mxCell id="tJRC6gm0kMKgmxBiP_jF-11" style="edgeStyle=orthogonalEdgeStyle;rounded=0;orthogonalLoop=1;jettySize=auto;html=1;entryX=0;entryY=0.5;entryDx=0;entryDy=0;" edge="1" parent="2Vbj4L77X7BfrputcoRu-93" source="2Vbj4L77X7BfrputcoRu-85" target="2Vbj4L77X7BfrputcoRu-79">
          <mxGeometry relative="1" as="geometry" />
        </mxCell>
        <mxCell id="tJRC6gm0kMKgmxBiP_jF-13" style="edgeStyle=orthogonalEdgeStyle;rounded=0;orthogonalLoop=1;jettySize=auto;html=1;" edge="1" parent="2Vbj4L77X7BfrputcoRu-93" source="2Vbj4L77X7BfrputcoRu-85" target="2Vbj4L77X7BfrputcoRu-115">
          <mxGeometry relative="1" as="geometry">
            <Array as="points">
              <mxPoint x="510" y="533" />
              <mxPoint x="500" y="533" />
            </Array>
          </mxGeometry>
        </mxCell>
        <mxCell id="tJRC6gm0kMKgmxBiP_jF-14" style="edgeStyle=orthogonalEdgeStyle;rounded=0;orthogonalLoop=1;jettySize=auto;html=1;" edge="1" parent="2Vbj4L77X7BfrputcoRu-93" source="2Vbj4L77X7BfrputcoRu-85" target="2Vbj4L77X7BfrputcoRu-126">
          <mxGeometry relative="1" as="geometry" />
        </mxCell>
        <mxCell id="2Vbj4L77X7BfrputcoRu-85" value="Fitur-fitur Admin" style="rounded=0;whiteSpace=wrap;html=1;shape=mxgraph.flowchart.display;fixedSize=1;strokeWidth=2;" parent="2Vbj4L77X7BfrputcoRu-93" vertex="1">
          <mxGeometry x="450" y="400" width="120" height="60" as="geometry" />
        </mxCell>
        <mxCell id="2Vbj4L77X7BfrputcoRu-108" value="" style="edgeStyle=orthogonalEdgeStyle;rounded=0;orthogonalLoop=1;jettySize=auto;html=1;" parent="2Vbj4L77X7BfrputcoRu-93" source="2Vbj4L77X7BfrputcoRu-90" target="2Vbj4L77X7BfrputcoRu-107" edge="1">
          <mxGeometry relative="1" as="geometry" />
        </mxCell>
        <mxCell id="2Vbj4L77X7BfrputcoRu-90" value="Fitur-fitur client" style="rounded=0;whiteSpace=wrap;html=1;shape=mxgraph.flowchart.display;fixedSize=1;strokeWidth=2;" parent="2Vbj4L77X7BfrputcoRu-93" vertex="1">
          <mxGeometry x="280" y="390" width="120" height="60" as="geometry" />
        </mxCell>
        <mxCell id="2Vbj4L77X7BfrputcoRu-107" value="Fitur Message admin" style="verticalLabelPosition=middle;verticalAlign=middle;html=1;shape=trapezoid;perimeter=trapezoidPerimeter;whiteSpace=wrap;size=0.23;arcSize=10;flipV=1;labelPosition=center;align=center;" parent="2Vbj4L77X7BfrputcoRu-93" vertex="1">
          <mxGeometry x="290" y="510" width="100" height="60" as="geometry" />
        </mxCell>
        <mxCell id="2Vbj4L77X7BfrputcoRu-115" value="Message dari client" style="strokeWidth=2;html=1;shape=mxgraph.flowchart.document2;whiteSpace=wrap;size=0.25;" parent="2Vbj4L77X7BfrputcoRu-93" vertex="1">
          <mxGeometry x="450" y="530" width="100" height="60" as="geometry" />
        </mxCell>
        <mxCell id="2Vbj4L77X7BfrputcoRu-79" value="Fitur-Fitur IoT User" style="whiteSpace=wrap;html=1;shape=mxgraph.flowchart.display;fixedSize=1;strokeWidth=2;" parent="2Vbj4L77X7BfrputcoRu-93" vertex="1">
          <mxGeometry x="690" y="340" width="120" height="60" as="geometry" />
        </mxCell>
        <mxCell id="2Vbj4L77X7BfrputcoRu-112" style="edgeStyle=orthogonalEdgeStyle;rounded=0;orthogonalLoop=1;jettySize=auto;html=1;entryX=0.5;entryY=0;entryDx=0;entryDy=0;" parent="2Vbj4L77X7BfrputcoRu-93" source="2Vbj4L77X7BfrputcoRu-75" target="2Vbj4L77X7BfrputcoRu-79" edge="1">
          <mxGeometry relative="1" as="geometry" />
        </mxCell>
        <mxCell id="2Vbj4L77X7BfrputcoRu-113" value="IoT Engeneer" style="edgeLabel;html=1;align=center;verticalAlign=middle;resizable=0;points=[];" parent="2Vbj4L77X7BfrputcoRu-112" vertex="1" connectable="0">
          <mxGeometry x="-0.1582" y="-1" relative="1" as="geometry">
            <mxPoint as="offset" />
          </mxGeometry>
        </mxCell>
        <mxCell id="2Vbj4L77X7BfrputcoRu-97" value="Stok Komponen IoT" style="strokeWidth=2;html=1;shape=mxgraph.flowchart.document2;whiteSpace=wrap;size=0.25;" parent="2Vbj4L77X7BfrputcoRu-93" vertex="1">
          <mxGeometry x="700" y="420" width="100" height="60" as="geometry" />
        </mxCell>
        <mxCell id="2Vbj4L77X7BfrputcoRu-98" value="" style="edgeStyle=orthogonalEdgeStyle;rounded=0;orthogonalLoop=1;jettySize=auto;html=1;" parent="2Vbj4L77X7BfrputcoRu-93" source="2Vbj4L77X7BfrputcoRu-79" target="2Vbj4L77X7BfrputcoRu-97" edge="1">
          <mxGeometry relative="1" as="geometry" />
        </mxCell>
        <mxCell id="2Vbj4L77X7BfrputcoRu-126" value="Data-data User" style="strokeWidth=2;html=1;shape=mxgraph.flowchart.document2;whiteSpace=wrap;size=0.25;" parent="2Vbj4L77X7BfrputcoRu-93" vertex="1">
          <mxGeometry x="570" y="520" width="100" height="60" as="geometry" />
        </mxCell>
        <mxCell id="2Vbj4L77X7BfrputcoRu-134" style="edgeStyle=orthogonalEdgeStyle;rounded=0;orthogonalLoop=1;jettySize=auto;html=1;" parent="2Vbj4L77X7BfrputcoRu-93" source="2Vbj4L77X7BfrputcoRu-66" target="2Vbj4L77X7BfrputcoRu-126" edge="1">
          <mxGeometry relative="1" as="geometry">
            <mxPoint x="700" y="635.22" as="targetPoint" />
            <mxPoint x="600" y="104.72000000000003" as="sourcePoint" />
            <Array as="points">
              <mxPoint x="828" y="105" />
              <mxPoint x="828" y="635" />
            </Array>
          </mxGeometry>
        </mxCell>
        <mxCell id="tJRC6gm0kMKgmxBiP_jF-8" style="edgeStyle=orthogonalEdgeStyle;rounded=0;orthogonalLoop=1;jettySize=auto;html=1;" edge="1" parent="2Vbj4L77X7BfrputcoRu-93" source="tJRC6gm0kMKgmxBiP_jF-1" target="2Vbj4L77X7BfrputcoRu-97">
          <mxGeometry relative="1" as="geometry" />
        </mxCell>
        <mxCell id="tJRC6gm0kMKgmxBiP_jF-1" value="IoT DB" style="shape=cylinder3;whiteSpace=wrap;html=1;boundedLbl=1;backgroundOutline=1;size=15;" vertex="1" parent="2Vbj4L77X7BfrputcoRu-93">
          <mxGeometry x="720" y="510" width="60" height="80" as="geometry" />
        </mxCell>
        <mxCell id="tJRC6gm0kMKgmxBiP_jF-38" value="Pesan untuk admin" style="shape=parallelogram;perimeter=parallelogramPerimeter;whiteSpace=wrap;html=1;fixedSize=1;" vertex="1" parent="2Vbj4L77X7BfrputcoRu-93">
          <mxGeometry x="270" y="600" width="140" height="60" as="geometry" />
        </mxCell>
        <mxCell id="tJRC6gm0kMKgmxBiP_jF-39" value="" style="edgeStyle=orthogonalEdgeStyle;rounded=0;orthogonalLoop=1;jettySize=auto;html=1;" edge="1" parent="2Vbj4L77X7BfrputcoRu-93" source="2Vbj4L77X7BfrputcoRu-107" target="tJRC6gm0kMKgmxBiP_jF-38">
          <mxGeometry relative="1" as="geometry">
            <mxPoint x="340" y="570" as="sourcePoint" />
            <mxPoint x="340" y="620" as="targetPoint" />
          </mxGeometry>
        </mxCell>
        <mxCell id="tJRC6gm0kMKgmxBiP_jF-34" style="edgeStyle=orthogonalEdgeStyle;rounded=0;orthogonalLoop=1;jettySize=auto;html=1;" edge="1" parent="1" source="tJRC6gm0kMKgmxBiP_jF-17" target="tJRC6gm0kMKgmxBiP_jF-1">
          <mxGeometry relative="1" as="geometry">
            <Array as="points">
              <mxPoint x="750" y="910" />
              <mxPoint x="750" y="910" />
            </Array>
          </mxGeometry>
        </mxCell>
        <mxCell id="tJRC6gm0kMKgmxBiP_jF-17" value="Edit dan Hapus" style="whiteSpace=wrap;html=1;strokeWidth=2;" vertex="1" parent="1">
          <mxGeometry x="650" y="930" width="120" height="60" as="geometry" />
        </mxCell>
        <mxCell id="tJRC6gm0kMKgmxBiP_jF-23" style="edgeStyle=orthogonalEdgeStyle;rounded=0;orthogonalLoop=1;jettySize=auto;html=1;" edge="1" parent="1" source="2Vbj4L77X7BfrputcoRu-97" target="tJRC6gm0kMKgmxBiP_jF-17">
          <mxGeometry relative="1" as="geometry">
            <Array as="points">
              <mxPoint x="690" y="720" />
            </Array>
          </mxGeometry>
        </mxCell>
        <mxCell id="tJRC6gm0kMKgmxBiP_jF-25" value="Edit dan Hapus" style="whiteSpace=wrap;html=1;strokeWidth=2;" vertex="1" parent="1">
          <mxGeometry x="440" y="930" width="120" height="60" as="geometry" />
        </mxCell>
        <mxCell id="tJRC6gm0kMKgmxBiP_jF-26" style="edgeStyle=orthogonalEdgeStyle;rounded=0;orthogonalLoop=1;jettySize=auto;html=1;" edge="1" parent="1" source="2Vbj4L77X7BfrputcoRu-115" target="tJRC6gm0kMKgmxBiP_jF-25">
          <mxGeometry relative="1" as="geometry">
            <Array as="points">
              <mxPoint x="530" y="890" />
              <mxPoint x="530" y="890" />
            </Array>
          </mxGeometry>
        </mxCell>
        <mxCell id="tJRC6gm0kMKgmxBiP_jF-30" value="Edit dan Hapus" style="whiteSpace=wrap;html=1;strokeWidth=2;" vertex="1" parent="1">
          <mxGeometry x="550" y="1010" width="120" height="60" as="geometry" />
        </mxCell>
        <mxCell id="tJRC6gm0kMKgmxBiP_jF-31" style="edgeStyle=orthogonalEdgeStyle;rounded=0;orthogonalLoop=1;jettySize=auto;html=1;" edge="1" parent="1" source="tJRC6gm0kMKgmxBiP_jF-30" target="2Vbj4L77X7BfrputcoRu-66">
          <mxGeometry relative="1" as="geometry">
            <Array as="points">
              <mxPoint x="840" y="1040" />
              <mxPoint x="840" y="390" />
            </Array>
          </mxGeometry>
        </mxCell>
        <mxCell id="tJRC6gm0kMKgmxBiP_jF-33" style="edgeStyle=orthogonalEdgeStyle;rounded=0;orthogonalLoop=1;jettySize=auto;html=1;entryX=0.333;entryY=0;entryDx=0;entryDy=0;entryPerimeter=0;" edge="1" parent="1" source="2Vbj4L77X7BfrputcoRu-126" target="tJRC6gm0kMKgmxBiP_jF-30">
          <mxGeometry relative="1" as="geometry">
            <Array as="points">
              <mxPoint x="590" y="880" />
              <mxPoint x="590" y="880" />
            </Array>
          </mxGeometry>
        </mxCell>
        <mxCell id="tJRC6gm0kMKgmxBiP_jF-44" style="edgeStyle=orthogonalEdgeStyle;rounded=0;orthogonalLoop=1;jettySize=auto;html=1;" edge="1" parent="1" source="2Vbj4L77X7BfrputcoRu-117" target="2Vbj4L77X7BfrputcoRu-115">
          <mxGeometry relative="1" as="geometry">
            <Array as="points">
              <mxPoint x="420" y="1030" />
              <mxPoint x="420" y="860" />
            </Array>
          </mxGeometry>
        </mxCell>
        <mxCell id="2Vbj4L77X7BfrputcoRu-117" value="Message DB" style="shape=cylinder3;whiteSpace=wrap;html=1;boundedLbl=1;backgroundOutline=1;size=15;direction=east;" parent="1" vertex="1">
          <mxGeometry x="310" y="990" width="60" height="80" as="geometry" />
        </mxCell>
        <mxCell id="tJRC6gm0kMKgmxBiP_jF-40" value="" style="edgeStyle=orthogonalEdgeStyle;rounded=0;orthogonalLoop=1;jettySize=auto;html=1;" edge="1" parent="1" source="tJRC6gm0kMKgmxBiP_jF-38" target="2Vbj4L77X7BfrputcoRu-117">
          <mxGeometry relative="1" as="geometry" />
        </mxCell>
      </root>
    </mxGraphModel>
  </diagram>
</mxfile>
